# xmcd
#
# Track frame offsets: 
#        150
#        22600
#        43095
#        72237
#        99630
#        122925
#
# Disc length: 2087 seconds
#
# Revision: 2
# Processed by: cddbd v1.5.2PL0 Copyright (c) Steve Scherf et al.
# Submitted via: ExactAudioCopyFreeDBPlugin 1.0
#
DISCID=49082506
DTITLE=CRAZY-A - Please
DYEAR=1992
DGENRE=Hip-Hop
TTITLE0=愛を思い出に
TTITLE1=ストリートダンサー
TTITLE2=Watch Me!
TTITLE3=さおりのテーマ (Breakin'mix)
TTITLE4=Kimie
TTITLE5=Won't Be Long
EXTD=Powerd by gracenote music web API
EXTT0=
EXTT1=
EXTT2=
EXTT3=
EXTT4=
EXTT5=
PLAYORDER=
